Coordinates
version=1
nRows=13
nColumns=40
inDegrees=yes

Units are S.I. units (second, meters, Newtons, ...)
If the header above contains a line with 'inDegrees', this indicates whether rotational values are in degrees (yes) or radians (no).

endheader
time	pelvis_tilt	pelvis_list	pelvis_rotation	pelvis_tx	pelvis_ty	pelvis_tz	hip_flexion_r	hip_adduction_r	hip_rotation_r	knee_angle_r	knee_angle_r_beta	ankle_angle_r	subtalar_angle_r	mtp_angle_r	hip_flexion_l	hip_adduction_l	hip_rotation_l	knee_angle_l	knee_angle_l_beta	ankle_angle_l	subtalar_angle_l	mtp_angle_l	lumbar_extension	lumbar_bending	lumbar_rotation	arm_flex_r	arm_add_r	arm_rot_r	elbow_flex_r	pro_sup_r	wrist_flex_r	wrist_dev_r	arm_flex_l	arm_add_l	arm_rot_l	elbow_flex_l	pro_sup_l	wrist_flex_l	wrist_dev_l
      1.26000000	      5.08383357	      7.22937904	    -88.31113910	      0.21153893	      0.89299243	      0.92436678	     35.52257676	     -5.35908667	     -1.71683597	      1.93889604	      0.03384012	      8.30231148	      0.00000000	      0.00000000	    -11.45701556	      7.14172258	     10.98318957	      0.46760979	      0.00816133	     11.74880528	      0.00000000	      0.00000000	      0.79193112	     -6.41915490	     -5.18165789	      0.00000000	      0.00000000	      0.00000000	      0.00000000	      0.00000000	      0.00000000	      0.00000000	      0.00000000	      0.00000000	      0.00000000	      0.00000000	      0.00000000	      0.00000000	      0.00000000
      1.27000000	      5.04464127	      7.43841555	    -87.98574770	      0.21099073	      0.89095511	      0.93914608	     35.76739761	     -5.38347875	     -1.68781481	      2.26899426	      0.03960142	      8.14478383	      0.00000000	      0.00000000	    -11.89247625	      6.91293632	     10.89562567	      1.10241531	      0.01924078	     11.52301187	      0.00000000	      0.00000000	      1.15074562	     -6.43212668	     -5.26825050	      0.00000000	      0.00000000	      0.00000000	      0.00000000	      0.00000000	      0.00000000	      0.00000000	      0.00000000	      0.00000000	      0.00000000	      0.00000000	      0.00000000	      0.00000000	      0.00000000
      1.28000000	      4.82635132	      7.29824461	    -87.82475022	      0.20996599	      0.88954251	      0.95416627	     35.65827347	     -5.07855442	     -1.31104533	      3.07052767	      0.05359082	      8.17996969	      0.00000000	      0.00000000	    -12.65470045	      6.49900914	     10.83945392	      1.82921004	      0.03192574	     11.77400460	      0.00000000	      0.00000000	      1.05869976	     -6.19442091	     -5.27605998	      0.00000000	      0.00000000	      0.00000000	      0.00000000	      0.00000000	      0.00000000	      0.00000000	      0.00000000	      0.00000000	      0.00000000	      0.00000000	      0.00000000	      0.00000000	      0.00000000
      1.29000000	      4.58554872	      7.40084486	    -87.49867514	      0.20924400	      0.88814263	      0.96927002	     35.69843487	     -4.85121028	     -1.21411608	      4.01792994	      0.07012611	      7.70600862	      0.00000000	      0.00000000	    -12.96547161	      6.06373349	     10.83276033	      2.87592135	      0.05019430	     11.39110456	      0.00000000	      0.00000000	      1.30059865	     -5.93647055	     -5.41457441	      0.00000000	      0.00000000	      0.00000000	      0.00000000	      0.00000000	      0.00000000	      0.00000000	      0.00000000	      0.00000000	      0.00000000	      0.00000000	      0.00000000	      0.00000000	      0.00000000
      1.30000000	      4.24277687	      7.39246570	    -87.22197423	      0.20834420	      0.88714148	      0.98460565	     35.64975486	     -4.50549620	     -1.64468969	      5.24983165	      0.09162685	      6.74975657	      0.00000000	      0.00000000	    -13.25005523	      5.51419866	     10.28729484	      4.13693098	      0.07220307	     11.04559300	      0.00000000	      0.00000000	      1.44391892	     -5.56489589	     -5.46465051	      0.00000000	      0.00000000	      0.00000000	      0.00000000	      0.00000000	      0.00000000	      0.00000000	      0.00000000	      0.00000000	      0.00000000	      0.00000000	      0.00000000	      0.00000000	      0.00000000
      1.31000000	      3.89228201	      7.49032165	    -86.92902231	      0.20747895	      0.88638119	      0.99995993	     35.56824227	     -4.12555868	     -1.55515676	      6.37175870	      0.11120817	      5.89827441	      0.00000000	      0.00000000	    -13.34604331	      4.98835341	     10.32213440	      5.49704239	      0.09594149	     10.41844504	      0.00000000	      0.00000000	      1.72761404	     -5.18321996	     -5.56814807	      0.00000000	      0.00000000	      0.00000000	      0.00000000	      0.00000000	      0.00000000	      0.00000000	      0.00000000	      0.00000000	      0.00000000	      0.00000000	      0.00000000	      0.00000000	      0.00000000
      1.32000000	      3.41231537	      7.63118686	    -86.64629244	      0.20646846	      0.88586931	      1.01542530	     35.51772422	     -3.67048252	     -2.30822809	      7.49125727	      0.13074710	      3.75745910	      0.00000000	      0.00000000	    -13.02567977	      4.28413016	      9.08195214	      7.41645819	      0.12944161	      9.44819413	      0.00000000	      0.00000000	      2.10314097	     -4.67655356	     -5.60865597	      0.00000000	      0.00000000	      0.00000000	      0.00000000	      0.00000000	      0.00000000	      0.00000000	      0.00000000	      0.00000000	      0.00000000	      0.00000000	      0.00000000	      0.00000000	      0.00000000
      1.33000000	      2.89149966	      7.81064343	    -86.39186837	      0.20542625	      0.88571433	      1.03086116	     35.41622968	     -3.13748478	     -2.57038991	      8.49660154	      0.14829367	      1.88401103	      0.00000000	      0.00000000	    -12.54474505	      3.56180966	      8.24909965	      9.48567652	      0.16555629	      8.26274815	      0.00000000	      0.00000000	      2.52511375	     -4.11114472	     -5.63148835	      0.00000000	      0.00000000	      0.00000000	      0.00000000	      0.00000000	      0.00000000	      0.00000000	      0.00000000	      0.00000000	      0.00000000	      0.00000000	      0.00000000	      0.00000000	      0.00000000
      1.34000000	      2.32754501	      7.97949572	    -86.14415118	      0.20427482	      0.88597849	      1.04629796	     35.27801249	     -2.57447887	     -2.89136876	      9.48240904	      0.16549926	      0.03691064	      0.00000000	      0.00000000	    -11.87932416	      2.76297742	      7.29595053	     11.79676854	      0.20589245	      6.71956689	      0.00000000	      0.00000000	      2.95462771	     -3.52926683	     -5.60603316	      0.00000000	      0.00000000	      0.00000000	      0.00000000	      0.00000000	      0.00000000	      0.00000000	      0.00000000	      0.00000000	      0.00000000	      0.00000000	      0.00000000	      0.00000000	      0.00000000
      1.35000000	      1.73907574	      8.11343599	    -85.95267337	      0.20306477	      0.88667048	      1.06165488	     35.08721430	     -1.97876072	     -3.22916342	     10.44769394	      0.18234666	     -1.56150798	      0.00000000	      0.00000000	    -11.05078122	      1.93410984	      6.31170980	     14.37204209	      0.25083945	      4.85245519	      0.00000000	      0.00000000	      3.33464501	     -2.90053677	     -5.54505649	      0.00000000	      0.00000000	      0.00000000	      0.00000000	      0.00000000	      0.00000000	      0.00000000	      0.00000000	      0.00000000	      0.00000000	      0.00000000	      0.00000000	      0.00000000	      0.00000000
      1.36000000	      1.10850422	      8.24793275	    -85.80097182	      0.20172415	      0.88771770	      1.07696610	     34.85663939	     -1.34233224	     -3.60578913	     11.36253599	      0.19831366	     -2.86752478	      0.00000000	      0.00000000	    -10.00344708	      1.02411861	      5.23392418	     17.23045635	      0.30072819	      2.65782731	      0.00000000	      0.00000000	      3.73401757	     -2.23769982	     -5.43728019	      0.00000000	      0.00000000	      0.00000000	      0.00000000	      0.00000000	      0.00000000	      0.00000000	      0.00000000	      0.00000000	      0.00000000	      0.00000000	      0.00000000	      0.00000000	      0.00000000
      1.37000000	      0.49806979	      8.31346761	    -85.68444506	      0.20029805	      0.88917791	      1.09214298	     34.51889935	     -0.71708159	     -4.00898798	     12.25846800	      0.21395063	     -3.73275116	      0.00000000	      0.00000000	     -8.81562274	      0.10960535	      4.22707937	     20.36199980	      0.35538394	      0.21680137	      0.00000000	     -0.00000000	      4.02397692	     -1.59529713	     -5.27950791	     -0.00000000	     -0.00000000	      0.00000000	      0.00000000	      0.00000000	      0.00000000	     -0.00000000	     -0.00000000	     -0.00000000	      0.00000000	      0.00000000	      0.00000000	      0.00000000	     -0.00000000
      1.38000000	     -0.20443802	      8.51070500	    -85.63777087	      0.19871362	      0.89069217	      1.10714531	     34.27504207	      0.03077945	     -4.34513441	     13.07095718	      0.22813124	     -4.30965043	      0.00000000	      0.00000000	     -7.27525431	     -0.91322915	      3.25596608	     23.75859994	      0.41466579	     -2.48573262	      0.00000000	      0.00000000	      4.48235321	     -0.85210714	     -5.02678081	      0.00000000	      0.00000000	      0.00000000	      0.00000000	      0.00000000	      0.00000000	      0.00000000	      0.00000000	      0.00000000	      0.00000000	      0.00000000	      0.00000000	      0.00000000	      0.00000000
